<?xml version="1.0" encoding="iso-8859-1"?>
<!-- Generator: Adobe Illustrator 19.0.0, SVG Export Plug-In . SVG Version: 6.00 Build 0)  -->
<svg version="1.1" id="Capa_1" xmlns="http://www.w3.org/2000/svg" xmlns:xlink="http://www.w3.org/1999/xlink" x="0px" y="0px"
	 viewBox="0 0 511.999 511.999" style="enable-background:new 0 0 511.999 511.999;" xml:space="preserve">
<path style="fill:#D8556B;" d="M421.217,16.44H92.53c-11.799,0-21.363,9.565-21.363,21.363V473.73
	c0,17.375,14.086,31.461,31.461,31.461c8.037,0,325.487,0,318.59,0c11.799,0,21.363-9.565,21.363-21.363V37.803
	C442.581,26.005,433.016,16.44,421.217,16.44z"/>
<path style="fill:#C64757;" d="M152.616,16.44H92.53c-11.799,0-21.363,9.565-21.363,21.363V473.73
	c0,17.375,14.086,31.461,31.461,31.461h49.989V16.44z"/>
<path style="fill:#B2364B;" d="M132.947,16.44H92.53c-11.799,0-21.363,9.565-21.363,21.363V473.73
	c0,17.375,14.086,31.461,31.461,31.461h30.32V16.44z"/>
<path style="fill:#A32F48;" d="M90.294,16.557C79.547,17.675,71.166,26.76,71.166,37.803V473.73c0,12.998,7.882,24.152,19.128,28.95
	V16.557z"/>
<path style="fill:#B5E3EA;" d="M164.069,8.191c-2.514,0-4.553,2.038-4.553,4.553v88.474c0,2.265,2.491,3.646,4.412,2.445
	l22.076-13.798l2-81.675C188.004,8.191,164.069,8.191,164.069,8.191z"/>
<path style="fill:#90D8E0;" d="M177.345,8.191h-13.276c-2.514,0-4.553,2.038-4.553,4.553v88.474c0,2.265,2.491,3.646,4.412,2.446
	l13.417-8.386V8.191z"/>
<path style="fill:#E1F3F9;" d="M207.941,8.191c2.514,0,4.553,2.038,4.553,4.553v88.474c0,2.265-2.491,3.646-4.412,2.445
	l-22.076-13.798V8.191H207.941z"/>
<path style="fill:#FFD261;" d="M331.117,165.784h-38.723c-1.779,0-3.222-1.442-3.222-3.222v-44.117c0-1.779-1.442-3.222-3.222-3.222
	h-27.263c-1.779,0-3.222,1.442-3.222,3.222v44.117c0,1.779-1.442,3.222-3.222,3.222H213.52c-1.779,0-3.222,1.442-3.222,3.222v27.263
	c0,1.779,1.443,3.222,3.222,3.222h38.722c1.779,0,3.222,1.442,3.222,3.222v123.663c0,1.779,1.442,3.222,3.222,3.222h27.263
	c1.779,0,3.222-1.442,3.222-3.222V202.712c0-1.779,1.442-3.222,3.222-3.222h38.723c1.779,0,3.222-1.442,3.222-3.222v-27.263
	C334.339,167.226,332.896,165.784,331.117,165.784z"/>
<g>
	<path style="fill:#EFA603;" d="M275.467,162.562v-44.117c0-1.779,1.442-3.222,3.222-3.222h-20.001
		c-1.779,0-3.222,1.442-3.222,3.222v44.117c0,1.779-1.442,3.222-3.222,3.222h20.001
		C274.025,165.784,275.467,164.341,275.467,162.562z"/>
	<path style="fill:#EFA603;" d="M230.3,196.269v-27.263c0-1.779,1.443-3.222,3.222-3.222h-20.001c-1.78,0-3.222,1.442-3.222,3.222
		v27.263c0,1.779,1.443,3.222,3.222,3.222h20.001C231.743,199.49,230.3,198.048,230.3,196.269z"/>
	<path style="fill:#EFA603;" d="M275.467,326.375V202.712c0-1.779-1.442-3.222-3.222-3.222h-20.001c1.779,0,3.222,1.442,3.222,3.222
		v123.662c0,1.779,1.442,3.222,3.222,3.222h20.001C276.91,329.597,275.467,328.154,275.467,326.375z"/>
</g>
<path d="M367.293,62.959h8.99c4.143,0,7.5-3.357,7.5-7.5s-3.357-7.5-7.5-7.5h-8.99c-4.143,0-7.5,3.357-7.5,7.5
	S363.151,62.959,367.293,62.959z"/>
<path d="M285.075,107.031h-27.263c-5.912,0-10.723,4.81-10.723,10.723v39.837h-34.444c-5.912,0-10.723,4.81-10.723,10.723v27.264
	c0,5.912,4.81,10.723,10.723,10.723h34.444v119.384c0,5.912,4.81,10.723,10.723,10.723h27.263c5.912,0,10.723-4.81,10.723-10.723
	V206.299h34.444c5.912,0,10.723-4.81,10.723-10.723v-27.264c0-5.912-4.81-10.723-10.723-10.723h-34.445v-39.837
	C295.797,111.842,290.988,107.031,285.075,107.031z M325.963,172.592v18.706h-34.444c-5.912,0-10.723,4.81-10.723,10.723v119.384
	h-18.705V202.021c0-5.912-4.81-10.723-10.723-10.723h-34.444v-18.706h34.444c5.912,0,10.723-4.81,10.723-10.723v-39.837h18.705
	v39.837c0,5.912,4.81,10.723,10.723,10.723H325.963z"/>
<path d="M228.766,361.168c-4.143,0-7.5,3.357-7.5,7.5c0,4.143,3.357,7.5,7.5,7.5h91.706c4.143,0,7.5-3.357,7.5-7.5
	c0-4.143-3.357-7.5-7.5-7.5H228.766z"/>
<path d="M179.877,404.134c0,4.143,3.357,7.5,7.5,7.5H355.51c4.143,0,7.5-3.357,7.5-7.5s-3.357-7.5-7.5-7.5H187.377
	C183.235,396.634,179.877,399.992,179.877,404.134z"/>
<path d="M187.377,447.101H355.51c4.143,0,7.5-3.357,7.5-7.5c0-4.143-3.357-7.5-7.5-7.5H187.377c-4.143,0-7.5,3.357-7.5,7.5
	C179.877,443.744,183.235,447.101,187.377,447.101z"/>
<path d="M441.707,266c-4.143,0-7.5,3.357-7.5,7.5v209.635c0,7.644-6.219,13.863-13.864,13.863H292.12c-4.143,0-7.5,3.357-7.5,7.5
	s3.357,7.5,7.5,7.5h128.223c15.916,0,28.865-12.948,28.865-28.864V273.501C449.207,269.358,445.849,266,441.707,266z"/>
<path d="M420.341,8.248H218.618C217.02,3.463,212.506,0,207.191,0c-4.647,0-39.224,0-43.873,0c-5.315,0-9.83,3.463-11.428,8.248
	c-9.607,0-54.074,0-60.235,0c-15.916,0-28.864,12.948-28.864,28.864v446.023c0,15.916,12.948,28.864,28.864,28.864
	c4.712,0,162.67,0,165.462,0c4.143,0,7.5-3.357,7.5-7.5s-3.357-7.5-7.5-7.5H139.572V23.249h11.692v77.278
	c0,8.202,9.045,13.079,15.888,8.807l18.102-11.314l18.102,11.314c6.878,4.297,15.888-0.646,15.888-8.807V23.249h201.099
	c7.644,0,13.863,6.219,13.863,13.863v201.386c0,4.143,3.357,7.5,7.5,7.5s7.5-3.357,7.5-7.5V37.112
	C449.207,21.196,436.257,8.248,420.341,8.248z M124.572,496.999H91.655c-7.644,0-13.863-6.219-13.863-13.863V37.112
	c0-7.644,6.219-13.863,13.863-13.863h32.917V496.999z M177.754,85.018l-11.488,7.18v-76.45v-0.748h11.488V85.018z M204.242,15.749
	v76.449l-11.488-7.18V15.001h11.488V15.749z"/>
<g>
</g>
<g>
</g>
<g>
</g>
<g>
</g>
<g>
</g>
<g>
</g>
<g>
</g>
<g>
</g>
<g>
</g>
<g>
</g>
<g>
</g>
<g>
</g>
<g>
</g>
<g>
</g>
<g>
</g>
</svg>
