<?xml version="1.0" encoding="iso-8859-1"?>
<!-- Generator: Adobe Illustrator 19.0.0, SVG Export Plug-In . SVG Version: 6.00 Build 0)  -->
<svg xmlns="http://www.w3.org/2000/svg" xmlns:xlink="http://www.w3.org/1999/xlink" version="1.1" id="Layer_1" x="0px" y="0px" viewBox="0 0 512 512" style="enable-background:new 0 0 512 512;" xml:space="preserve" width="512" height="512">
<g>
	<g>
		<path style="fill:#7A5946;" d="M26.428,225.78c0-58.662,24.119-113.71,67.915-155.002C137.621,29.973,195.032,7.5,256,7.5    s118.379,22.473,161.658,63.278c43.795,41.293,67.914,96.34,67.914,155.002H26.428z"/>
		<path style="fill:#6B4A38;" d="M124.342,70.778C164.052,33.337,215.663,11.346,271,7.971c-4.973-0.303-9.973-0.471-15-0.471    c-60.968,0-118.379,22.473-161.658,63.278c-43.795,41.292-67.915,96.34-67.915,155.002h30    C56.428,167.118,80.547,112.071,124.342,70.778z"/>
		<path style="fill:#7A5946;" d="M485.572,225.78c0,0,1.774,209.15-68.732,209.15H95.16c-70.507,0-68.732-209.15-68.732-209.15    H485.572z"/>
		<path style="fill:#6B4A38;" d="M56.428,225.78h-30c0,0-1.774,209.15,68.732,209.15h30C54.653,434.93,56.428,225.78,56.428,225.78z    "/>
		<circle style="fill:#E3A98E;" cx="61.726" cy="233.106" r="44.758"/>
		<circle style="fill:#E3A98E;" cx="450.274" cy="233.106" r="44.758"/>
		<polygon style="fill:#FC7176;" points="327.598,378.776 184.402,378.776 160.429,452.386 184.402,504.5 327.598,504.5     345.053,441.638   "/>
		<circle style="fill:#E3A98E;" cx="256" cy="408.097" r="44.289"/>
		<path style="fill:#F5F5F5;" d="M367.88,504.5l7.5-3.866l7.5,3.866h0h45.607c0-103.226-59.71-125.723-59.71-125.723h-41.179V504.5    H367.88L367.88,504.5z"/>
		<path style="fill:#F5F5F5;" d="M143.223,378.777c0,0-59.71,22.497-59.71,125.723h45.607h0l7.5-2.832l7.5,2.832h0h40.282V378.777    H143.223z"/>
		<path style="fill:#FBBCA1;" d="M449.615,188.354c-144.44,4.593-226.959-72.17-247.506-94.093    c-3.346-3.57-8.444-4.853-13.099-3.349c-83.663,27.041-126.546,97.311-126.624,97.439c-2.616,12.092-3.99,24.609-3.99,37.429    c0,102.898,88.47,186.313,197.604,186.313s197.604-83.415,197.604-186.313C453.604,212.961,452.23,200.445,449.615,188.354z"/>
		<g id="XMLID_115_">
			<path style="fill:#F97579;" d="M372.236,274.91h-27.184c-4.143,0-7.5-3.358-7.5-7.5s3.357-7.5,7.5-7.5h27.184     c4.143,0,7.5,3.358,7.5,7.5S376.379,274.91,372.236,274.91z"/>
		</g>
		<g id="XMLID_113_">
			<path style="fill:#F97579;" d="M166.947,274.91h-27.184c-4.142,0-7.5-3.358-7.5-7.5s3.358-7.5,7.5-7.5h27.184     c4.143,0,7.5,3.358,7.5,7.5S171.09,274.91,166.947,274.91z"/>
		</g>
	</g>
	<g>
		<path d="M366.145,238.075v-19.958c0-4.142-3.358-7.5-7.5-7.5s-7.5,3.358-7.5,7.5v19.958c0,4.142,3.358,7.5,7.5,7.5    S366.145,242.217,366.145,238.075z"/>
		<path d="M160.855,238.075v-19.958c0-4.142-3.358-7.5-7.5-7.5s-7.5,3.358-7.5,7.5v19.958c0,4.142,3.358,7.5,7.5,7.5    S160.855,242.217,160.855,238.075z"/>
		<path d="M268.712,253.224c-3.087,3.533-7.721,5.559-12.712,5.559s-9.625-2.026-12.712-5.558c-2.727-3.119-7.464-3.438-10.583-0.71    c-3.119,2.726-3.437,7.464-0.71,10.583c5.937,6.791,14.686,10.686,24.005,10.686c9.32,0,18.069-3.895,24.006-10.687    c2.726-3.119,2.408-7.857-0.711-10.583C276.176,249.787,271.438,250.105,268.712,253.224z"/>
		<path d="M491.687,201.287c-5.829-51.957-29.607-98.933-68.884-135.966C378.126,23.198,318.888,0,256,0    C198.134,0,142.46,20.031,99.232,56.402c-3.169,2.667-3.577,7.398-0.91,10.567c2.667,3.169,7.397,3.578,10.567,0.91    C149.417,33.78,201.662,15,256,15c59.047,0,114.631,21.747,156.513,61.235c32.502,30.646,53.638,68.539,61.793,110.464    c-5.336-2.767-11.199-4.596-17.154-5.384c-2.585-0.342-5.17-0.457-7.776-0.457c-10.234,0.325-20.376,0.221-30.413-0.279    c-26.366-1.315-51.984-5.456-76.462-12.408c-3.982-1.131-8.132,1.181-9.264,5.166c-1.131,3.985,1.181,8.132,5.166,9.264    c25.085,7.124,51,11.34,77.028,12.817c9.329,0.529,18.69,0.739,28.033,0.585c0.359-0.006,1.388,9.161,1.485,9.986    c1.857,15.67,1.476,31.601-1.072,47.172c-12.29,74.917-74.2,134.627-153.052,148.416c-22.983,4.019-46.666,3.987-69.65,0    c-78.854-13.789-140.766-73.502-153.053-148.423c-2.79-17.129-2.896-34.648-0.447-51.825c0.268-1.876,1.14-9.148,1.784-10.113    c0.267-0.401,0.53-0.804,0.799-1.203c6.515-9.674,13.996-18.726,21.981-27.22c0.022-0.024,0.044-0.047,0.066-0.072    c22.076-24.017,49.336-44.073,79.262-57.154c6.307-2.757,12.759-5.234,19.304-7.368c4.049-1.32,6.045,1.539,8.555,4.107    c15.117,15.467,32.342,28.931,50.533,40.589c18.87,12.094,39.022,22.23,59.954,30.239c3.866,1.48,8.205-0.454,9.686-4.323    c1.481-3.868-0.455-8.205-4.323-9.686c-19.713-7.546-39.154-17.281-57.101-28.765c-18.26-11.684-35.747-25.385-50.592-41.226    c-5.262-5.615-13.568-7.719-20.879-5.356c-19.124,6.181-37.398,14.942-54.327,25.761c-28.5,18.214-54.17,42.322-73.335,70.248    c-0.269,0.392-0.537,0.785-0.802,1.179c-0.279,0.019-0.556,0.054-0.834,0.077c-6.83,0.563-13.607,2.496-19.696,5.65    c7.156-36.51,24.32-70.339,50.239-98.718c2.793-3.059,2.578-7.802-0.48-10.596c-3.058-2.793-7.802-2.579-10.596,0.48    c-31.884,34.91-51.406,77.549-56.562,123.433c-6.791,8.819-10.842,19.85-10.842,31.815c0,11.82,3.95,22.731,10.591,31.496    c1.663,30.237,5.746,72.755,15.722,108.25c11.265,40.082,27.812,62.999,49.269,68.347c-7.09,22.263-9.036,45.033-9.036,63.301    c0,4.142,3.358,7.5,7.5,7.5h344.973c4.142,0,7.5-3.358,7.5-7.5c0-25.693-3.675-46.539-9.045-63.298    c21.461-5.345,38.011-28.262,49.278-68.349c9.976-35.495,14.059-78.013,15.722-108.25c6.642-8.765,10.591-19.676,10.591-31.496    C502.532,221.139,498.479,210.106,491.687,201.287z M33.776,257.709c-5.924-6.753-9.308-15.554-9.308-24.603    c0-15.769,10.45-30.293,25.388-35.318c1.087-0.366,2.194-0.675,3.314-0.939c-0.213,1.347-0.408,2.697-0.591,4.05    c-1.592,11.742-2.057,23.681-1.37,35.512c0.655,11.288,2.34,22.56,5.049,33.539C47.624,268.681,39.53,264.269,33.776,257.709z     M50.221,368.794c-8.088-28.777-12.17-62.627-14.227-90.198c2.481,1.406,5.075,2.598,7.751,3.58    c5.459,2.002,11.263,3.082,17.078,3.179c12.668,36.97,36.784,69.116,68.394,92.671c-6.095,4.119-13.926,10.562-21.688,20.197    c-5.584,6.93-10.321,14.535-14.276,22.503c-0.016,0.032-1.998,4.121-2.928,6.258C73.681,423.858,60.207,404.323,50.221,368.794z     M176.902,497H144.12v-46.446c0-4.142-3.358-7.5-7.5-7.5s-7.5,3.358-7.5,7.5V497H91.127c1.125-36.642,10.556-67.15,27.444-88.566    c9.589-12.161,19.282-18.45,24.125-21.086c10.811,6.782,22.281,12.583,34.205,17.298V497z M220.551,416.7    c11.704,1.925,23.587,2.893,35.449,2.893c11.98,0,23.969-0.977,35.786-2.944c-3.866,16.175-18.444,28.237-35.786,28.237    c-17.346,0-31.926-12.066-35.788-28.239C220.325,416.666,220.438,416.681,220.551,416.7z M320.098,497H191.902v-87.075    c4.158,1.294,8.354,2.452,12.581,3.488c2.67,26.068,24.755,46.473,51.517,46.473c26.76,0,48.844-20.401,51.517-46.467    c4.227-1.035,8.423-2.193,12.581-3.486V497z M382.88,497v-46.446c0-4.142-3.358-7.5-7.5-7.5s-7.5,3.358-7.5,7.5V497h-32.782    v-92.354c11.93-4.718,23.406-10.522,34.222-17.309c7.627,4.122,27.225,17.302,39.972,48.943c0.005,0.011,0.009,0.022,0.013,0.033    c6.223,15.459,10.811,35.323,11.57,60.687H382.88z M461.779,368.794c-9.985,35.526-23.46,55.062-40.103,58.19    c-11.715-26.94-27.964-41.608-38.793-48.93c31.944-23.814,55.867-56.217,68.337-92.698c0.22-0.004,0.437-0.026,0.656-0.032    c8.227-0.247,16.922-2.643,24.129-6.728C473.949,306.167,469.867,340.017,461.779,368.794z M478.432,257.477    c-5.775,6.663-13.966,11.177-22.689,12.473c4.357-17.656,6.009-35.972,5.087-54.126c-0.323-6.351-1.006-12.691-2-18.972    c3.11,0.734,6.148,1.846,8.957,3.376c11.995,6.536,19.744,19.162,19.744,32.878C487.532,242.417,484.098,250.939,478.432,257.477z    "/>
	</g>
</g>















</svg>
